<svg xmlns="http://www.w3.org/2000/svg" width="47" height="47" viewBox="0 0 47 47">
  <g id="call-center_1_" data-name="call-center (1)" transform="translate(-0.5 -0.5)">
    <g id="Сгруппировать_188" data-name="Сгруппировать 188" transform="translate(24.369 1.246)">
      <path id="Контур_205" data-name="Контур 205" d="M50.827,12.5H49.708v2.612a1.119,1.119,0,0,1-1.119,1.119H44.112a1.119,1.119,0,0,1-1.119-1.119V12.5H41.873a.374.374,0,0,0-.373.373v5.969a.374.374,0,0,0,.373.373h8.954a.374.374,0,0,0,.373-.373V12.873a.374.374,0,0,0-.373-.373Z" transform="translate(-34.785 -4.292)" fill="#ff7d14"/>
      <path id="Контур_206" data-name="Контур 206" d="M46.5,12.5h2.238v1.492H46.5Z" transform="translate(-36.054 -4.292)" fill="#ff7d14"/>
      <path id="Контур_207" data-name="Контур 207" d="M44.065,1.5A11.578,11.578,0,0,0,32.5,13.065a11.426,11.426,0,0,0,.987,4.652l-.965,4.828a1.12,1.12,0,0,0,1.317,1.317L38.154,23A11.563,11.563,0,1,0,44.065,1.5Zm7.088,14.55a2.615,2.615,0,0,1-2.612,2.612H39.588a2.615,2.615,0,0,1-2.612-2.612V10.081a2.615,2.615,0,0,1,2.612-2.612h8.954a2.615,2.615,0,0,1,2.612,2.612Z" transform="translate(-32.5 -1.5)" fill="#ff7d14"/>
    </g>
    <path id="Контур_208" data-name="Контур 208" d="M9.079,47.5H25.492a5.6,5.6,0,0,0,5.6-5.6v-7.46a3.357,3.357,0,1,1,6.714,0,5.6,5.6,0,0,0,5.6,5.6h2.984a1.119,1.119,0,0,0,0-2.238H43.4a3.361,3.361,0,0,1-3.357-3.357,5.6,5.6,0,1,0-11.19,0V41.9a3.361,3.361,0,0,1-3.357,3.357H21.929a3.318,3.318,0,0,0,.206-1.119V35.19a3.361,3.361,0,0,0-3.357-3.357H14.3a1.12,1.12,0,0,1-1.119-1.119V17.286A1.12,1.12,0,0,1,14.3,16.167h4.476a3.361,3.361,0,0,0,3.357-3.357V3.857A3.361,3.361,0,0,0,18.778.5h-9.7A8.589,8.589,0,0,0,.5,9.079V38.92A8.589,8.589,0,0,0,9.079,47.5ZM2.738,9.079A6.349,6.349,0,0,1,9.079,2.738h9.7A1.12,1.12,0,0,1,19.9,3.857v8.952a1.12,1.12,0,0,1-1.119,1.119H14.3a3.361,3.361,0,0,0-3.357,3.357V30.714A3.361,3.361,0,0,0,14.3,34.071h4.476A1.12,1.12,0,0,1,19.9,35.19v8.952a1.12,1.12,0,0,1-1.119,1.119h-9.7A6.349,6.349,0,0,1,2.738,38.92Z" fill="#5775b9"/>
    <path id="Контур_209" data-name="Контур 209" d="M19.619,13.708a1.119,1.119,0,0,0,1.119-1.119V6.619a1.119,1.119,0,1,0-2.238,0v5.969a1.119,1.119,0,0,0,1.119,1.119Z" transform="translate(-4.572 -1.269)" fill="#fff"/>
    <path id="Контур_210" data-name="Контур 210" d="M19.619,55.708a1.119,1.119,0,0,0,1.119-1.119V48.619a1.119,1.119,0,1,0-2.238,0v5.969a1.119,1.119,0,0,0,1.119,1.119Z" transform="translate(-4.572 -11.939)" fill="#fff"/>
  </g>
</svg>
