<svg id="choice" xmlns="http://www.w3.org/2000/svg" width="47" height="47" viewBox="0 0 47 47">
  <path id="Контур_225" data-name="Контур 225" d="M311.639,0a9.639,9.639,0,1,0,9.639,9.639A9.649,9.649,0,0,0,311.639,0Zm0,16.523a6.885,6.885,0,1,1,6.885-6.885A6.893,6.893,0,0,1,311.639,16.523Z" transform="translate(-274.278)" fill="#ff7d14"/>
  <path id="Контур_226" data-name="Контур 226" d="M369.654,60.154a1.377,1.377,0,0,0-1.947,0l-1.8,1.8-1.8-1.8a1.377,1.377,0,0,0-1.947,1.947l1.8,1.8-1.8,1.8a1.377,1.377,0,0,0,1.947,1.947l1.8-1.8,1.8,1.8a1.377,1.377,0,0,0,1.947-1.947l-1.8-1.8,1.8-1.8A1.377,1.377,0,0,0,369.654,60.154Z" transform="translate(-328.542 -54.265)" fill="#5775b9"/>
  <path id="Контур_227" data-name="Контур 227" d="M19.277,9.639a9.639,9.639,0,1,0-9.639,9.639A9.65,9.65,0,0,0,19.277,9.639ZM9.639,16.523a6.885,6.885,0,1,1,6.885-6.885A6.893,6.893,0,0,1,9.639,16.523Z" fill="#ff7d14"/>
  <path id="Контур_228" data-name="Контур 228" d="M66.911,70.4l-2.79,2.79-.771-.771A1.377,1.377,0,0,0,61.4,74.37l1.744,1.744a1.377,1.377,0,0,0,1.947,0l3.764-3.764A1.377,1.377,0,1,0,66.911,70.4Z" transform="translate(-55.4 -63.575)" fill="#5775b9"/>
  <path id="Контур_229" data-name="Контур 229" d="M153.6,164.1l-7.4-.921v-7.046a4.131,4.131,0,0,0-8.262,0v11.9l-.344-.288a4.474,4.474,0,0,0-5.924.259,3.865,3.865,0,0,0,.251,5.754l6.017,5.049v4.866a1.377,1.377,0,0,0,1.377,1.377h16.523a1.377,1.377,0,0,0,1.377-1.377V168.2A4.137,4.137,0,0,0,153.6,164.1Zm-19.9,7.548a1.115,1.115,0,0,1-.074-1.7,1.711,1.711,0,0,1,2.207-.1l2.606,2.186a1.378,1.378,0,0,0,2.262-1.055V156.131a1.377,1.377,0,1,1,2.754,0v8.262a1.377,1.377,0,0,0,1.207,1.366l8.6,1.072a1.379,1.379,0,0,1,1.207,1.366v8.588H139.825Zm7,10.647v-2.754H154.47v2.754Z" transform="translate(-118.534 -138.047)" fill="#5775b9"/>
</svg>
