<svg id="focus" xmlns="http://www.w3.org/2000/svg" width="30" height="30" viewBox="0 0 30 30">
  <path id="Контур_241" data-name="Контур 241" d="M30,14.118H28.206A13.3,13.3,0,0,0,15.882,1.794V0H14.118V1.794A13.3,13.3,0,0,0,1.794,14.118H0v1.765H1.794A13.3,13.3,0,0,0,14.118,28.206V30h1.765V28.206A13.3,13.3,0,0,0,28.206,15.882H30ZM15.882,26.437V24.706H14.118v1.731A11.489,11.489,0,0,1,3.563,15.882H5.294V14.118H3.563A11.489,11.489,0,0,1,14.118,3.563V5.294h1.765V3.563A11.489,11.489,0,0,1,26.437,14.118H24.706v1.765h1.731A11.489,11.489,0,0,1,15.882,26.437Z" fill="#5775b9"/>
  <path id="Контур_242" data-name="Контур 242" d="M127.941,120A7.95,7.95,0,0,0,120,127.941c.436,10.535,15.448,10.532,15.882,0A7.95,7.95,0,0,0,127.941,120Zm-3.381,13.107a3.535,3.535,0,0,1,6.762,0A6.213,6.213,0,0,1,124.56,133.107Zm1.616-6.049a1.765,1.765,0,1,1,1.765,1.765A1.767,1.767,0,0,1,126.176,127.059Zm6.546,4.788a5.279,5.279,0,0,0-2.221-2.362,3.528,3.528,0,1,0-5.12,0,5.279,5.279,0,0,0-2.221,2.362,6.175,6.175,0,1,1,9.562,0Z" transform="translate(-112.941 -112.941)" fill="#ff7d14"/>
</svg>
