<svg id="homework" xmlns="http://www.w3.org/2000/svg" width="47" height="47" viewBox="0 0 47 47">
  <path id="Контур_217" data-name="Контур 217" d="M302.377,183.754h5.6a1.377,1.377,0,1,0,0-2.754h-5.6a1.377,1.377,0,0,0,0,2.754Z" transform="translate(-273.369 -164.385)" fill="#ff7d14"/>
  <path id="Контур_218" data-name="Контур 218" d="M302.377,243.754h5.6a1.377,1.377,0,1,0,0-2.754h-5.6a1.377,1.377,0,0,0,0,2.754Z" transform="translate(-273.369 -218.877)" fill="#ff7d14"/>
  <path id="Контур_219" data-name="Контур 219" d="M302.377,303.754h5.6a1.377,1.377,0,1,0,0-2.754h-5.6a1.377,1.377,0,0,0,0,2.754Z" transform="translate(-273.369 -273.369)" fill="#ff7d14"/>
  <path id="Контур_220" data-name="Контур 220" d="M121.377,183.754h5.6a1.377,1.377,0,0,0,0-2.754h-5.6a1.377,1.377,0,1,0,0,2.754Z" transform="translate(-108.984 -164.385)" fill="#ff7d14"/>
  <path id="Контур_221" data-name="Контур 221" d="M121.377,243.754h5.6a1.377,1.377,0,0,0,0-2.754h-5.6a1.377,1.377,0,1,0,0,2.754Z" transform="translate(-108.984 -218.877)" fill="#ff7d14"/>
  <path id="Контур_222" data-name="Контур 222" d="M128.353,302.377A1.377,1.377,0,0,0,126.976,301h-5.6a1.377,1.377,0,1,0,0,2.754h5.6A1.377,1.377,0,0,0,128.353,302.377Z" transform="translate(-108.984 -273.369)" fill="#ff7d14"/>
  <path id="Контур_223" data-name="Контур 223" d="M45.623,123.672H41.492v-2.295A1.377,1.377,0,0,0,40.115,120H29.008a6.878,6.878,0,0,0-5.508,2.758A6.878,6.878,0,0,0,17.992,120H6.885a1.377,1.377,0,0,0-1.377,1.377v2.295H1.377A1.377,1.377,0,0,0,0,125.049V149.1a1.377,1.377,0,0,0,1.377,1.377H16.753a6.886,6.886,0,0,0,13.493,0H45.623A1.377,1.377,0,0,0,47,149.1V125.049A1.377,1.377,0,0,0,45.623,123.672Zm-16.615-.918h9.73v19.461h-9.73a6.849,6.849,0,0,0-4.131,1.38v-16.71A4.136,4.136,0,0,1,29.008,122.754Zm-20.746,0h9.73a4.136,4.136,0,0,1,4.131,4.131v16.71a6.849,6.849,0,0,0-4.131-1.38H8.262Zm35.984,24.968H29.008a1.377,1.377,0,0,0-1.377,1.377,4.131,4.131,0,0,1-8.262,0,1.377,1.377,0,0,0-1.377-1.377H2.754v-21.3H5.508v17.166a1.377,1.377,0,0,0,1.377,1.377H17.992a4.135,4.135,0,0,1,4.131,4.131,1.377,1.377,0,0,0,2.754,0,4.135,4.135,0,0,1,4.131-4.131H40.115a1.377,1.377,0,0,0,1.377-1.377V126.426h2.754Z" transform="translate(0 -108.984)" fill="#5775b9"/>
  <path id="Контур_224" data-name="Контур 224" d="M34.213,8.262H62.67a1.376,1.376,0,0,0,.435-.071l8.262-2.754a1.377,1.377,0,0,0,0-2.613L63.1.071A1.376,1.376,0,0,0,62.67,0H34.213A3.217,3.217,0,0,0,31,3.213V5.049A3.217,3.217,0,0,0,34.213,8.262ZM64.047,3.287l2.53.843-2.53.843ZM44.769,2.754H61.293V5.508H44.769Zm-5.508,0h2.754V5.508H39.262Zm-5.508.459a.459.459,0,0,1,.459-.459h2.295V5.508H34.213a.459.459,0,0,1-.459-.459Z" transform="translate(-28.154 0)" fill="#ff7d14"/>
</svg>
