<svg id="marketing_2_" data-name="marketing (2)" xmlns="http://www.w3.org/2000/svg" width="30" height="30" viewBox="0 0 30 30">
  <path id="Контур_236" data-name="Контур 236" d="M30,12.353V7.059H24.706V8.824h2.282L23.4,12.409a7.949,7.949,0,0,0-5.755-3.537V2.647A2.65,2.65,0,0,0,15,0H2.647A2.65,2.65,0,0,0,0,2.647V27.353A2.65,2.65,0,0,0,2.647,30H15a2.65,2.65,0,0,0,2.647-2.647v-2.7a7.9,7.9,0,0,0,4.072-1.69l1.3,1.3-1.324,1.324L25.3,29.193A2.754,2.754,0,0,0,29.193,25.3l-3.605-3.605-1.324,1.324-1.3-1.3a7.991,7.991,0,0,0,1.269-7.647l4-4v2.281ZM27.946,26.546a.989.989,0,0,1-1.4,1.4l-2.357-2.357,1.4-1.4ZM22.12,13.691l-1.826,1.826-1.765-1.765L15,17.282l-1.765-1.765-2.516,2.516a6.181,6.181,0,0,1,11.4-4.342Zm.821,3.074a6.185,6.185,0,0,1-11.532,3.074l1.826-1.826L15,19.777l3.529-3.529,1.765,1.765L22.81,15.5A6.172,6.172,0,0,1,22.941,16.765Zm-11.134-15-.882,1.765h-4.2L5.839,1.765Zm-9.161,0H3.866L5.631,5.294h6.385l1.765-3.529H15a.883.883,0,0,1,.882.882V8.873A7.977,7.977,0,0,0,9.294,19.458L1.765,26.987V2.647a.883.883,0,0,1,.882-.882ZM15,28.235H3.013l7.115-7.115a7.949,7.949,0,0,0,5.755,3.537v2.7a.883.883,0,0,1-.882.882Z" fill="#5775b9"/>
  <path id="Контур_237" data-name="Контур 237" d="M60,120h7.941v1.765H60Z" transform="translate(-56.471 -112.941)" fill="#ff7d14"/>
  <path id="Контур_238" data-name="Контур 238" d="M60,180h4.412v1.765H60Z" transform="translate(-56.471 -169.412)" fill="#ff7d14"/>
  <path id="Контур_239" data-name="Контур 239" d="M60,240h3.529v1.765H60Z" transform="translate(-56.471 -225.882)" fill="#ff7d14"/>
  <path id="Контур_240" data-name="Контур 240" d="M60,300h2.647v1.765H60Z" transform="translate(-56.471 -282.353)" fill="#ff7d14"/>
</svg>
