<svg xmlns="http://www.w3.org/2000/svg" width="47.001" height="47" viewBox="0 0 47.001 47">
  <g id="meeting" transform="translate(0 -0.008)">
    <g id="Сгруппировать_298" data-name="Сгруппировать 298" transform="translate(0 8.453)">
      <g id="Сгруппировать_297" data-name="Сгруппировать 297">
        <path id="Контур_214" data-name="Контур 214" d="M21.908,125.421l-2.754-11.015a4.126,4.126,0,0,0-.93-1.754,4.128,4.128,0,0,0-3.078-6.882H12.193l-1.612-3.224-.019-.035a5.51,5.51,0,1,0-6.343-1.268,4.12,4.12,0,0,0-1.341,2.148L.125,114.406a4.136,4.136,0,0,0,2.332,4.779L.043,128.843a1.377,1.377,0,0,0,2.672.668l1.116-4.465H13.3l.595,2.38a4.131,4.131,0,0,0,8.015-2.005ZM8.263,94.755a2.754,2.754,0,1,1-2.754,2.754A2.757,2.757,0,0,1,8.263,94.755ZM4.519,122.292l.688-2.754h6.715l.688,2.754Zm13.715,5.467a1.375,1.375,0,0,1-1.668-1l-2.232-8.929A1.377,1.377,0,0,0,13,116.785H4.132A1.378,1.378,0,0,1,2.8,115.073L5.549,104.06a1.38,1.38,0,0,1,2.568-.283v0l1.991,3.982a1.377,1.377,0,0,0,1.232.761h3.805a1.377,1.377,0,1,1,0,2.754H9.64a1.369,1.369,0,0,1-1.232-.761,1.377,1.377,0,1,0-2.463,1.232,4.108,4.108,0,0,0,3.695,2.283h5.507a1.375,1.375,0,0,1,1.336,1.043l2.754,11.014A1.38,1.38,0,0,1,18.233,127.759Z" transform="translate(0 -92.001)" fill="#5775b9"/>
      </g>
    </g>
    <g id="Сгруппировать_300" data-name="Сгруппировать 300" transform="translate(24.968 8.453)">
      <g id="Сгруппировать_299" data-name="Сгруппировать 299">
        <path id="Контур_215" data-name="Контур 215" d="M291.568,119.183A4.13,4.13,0,0,0,293.9,114.4l-2.754-11.017a4.116,4.116,0,0,0-1.34-2.146,5.506,5.506,0,1,0-6.343,1.269l-.018.034-1.612,3.224h-2.954a4.128,4.128,0,0,0-3.078,6.882,4.125,4.125,0,0,0-.93,1.754l-2.754,11.015a4.131,4.131,0,0,0,8.015,2l.595-2.379h9.468l1.116,4.465a1.377,1.377,0,0,0,2.672-.668Zm-8.56-21.676a2.754,2.754,0,1,1,2.754,2.754A2.757,2.757,0,0,1,283.008,97.507Zm-1.594,24.784.688-2.754h6.715l.688,2.754Zm8.478-5.507h-8.865a1.377,1.377,0,0,0-1.336,1.043l-2.232,8.929a1.377,1.377,0,1,1-2.672-.668l2.754-11.015a1.375,1.375,0,0,1,1.336-1.043h5.507a4.108,4.108,0,0,0,3.695-2.283,1.377,1.377,0,0,0-2.463-1.232,1.369,1.369,0,0,1-1.232.761h-5.507a1.377,1.377,0,1,1,0-2.754h3.805a1.377,1.377,0,0,0,1.232-.761l1.993-3.985a1.379,1.379,0,0,1,2.568.281l2.754,11.015A1.378,1.378,0,0,1,289.893,116.783Z" transform="translate(-271.993 -91.999)" fill="#5775b9"/>
      </g>
    </g>
    <g id="Сгруппировать_302" data-name="Сгруппировать 302" transform="translate(13.77 0.008)">
      <g id="Сгруппировать_301" data-name="Сгруппировать 301">
        <path id="Контур_216" data-name="Контур 216" d="M165.336.008h-11.2a4.135,4.135,0,0,0-4.131,4.131V7.076a4.135,4.135,0,0,0,4.131,4.131h5.036l5.2,5.112a1.377,1.377,0,0,0,2.342-.982V10.971a4.138,4.138,0,0,0,2.754-3.895V4.139A4.135,4.135,0,0,0,165.336.008Zm1.377,7.068a1.378,1.378,0,0,1-1.377,1.377,1.377,1.377,0,0,0-1.377,1.377v2.222l-3.257-3.2a1.377,1.377,0,0,0-.966-.4h-5.6a1.378,1.378,0,0,1-1.377-1.377V4.139a1.378,1.378,0,0,1,1.377-1.377h11.2a1.378,1.378,0,0,1,1.377,1.377Z" transform="translate(-150.007 -0.008)" fill="#ff7d14"/>
      </g>
    </g>
  </g>
</svg>
