<svg xmlns="http://www.w3.org/2000/svg" width="35.25" height="47" viewBox="0 0 35.25 47">
  <g id="shopping-list" transform="translate(-64)">
    <g id="Сгруппировать_304" data-name="Сгруппировать 304" transform="translate(69.877 17.626)">
      <g id="Сгруппировать_303" data-name="Сгруппировать 303">
        <path id="Контур_230" data-name="Контур 230" d="M139.343,192.439a1.473,1.473,0,0,0-2.08,0l-4.835,4.838-1.9-1.9a1.469,1.469,0,0,0-2.077,2.077l2.937,2.937a1.454,1.454,0,0,0,1.037.432,1.475,1.475,0,0,0,1.04-.429l5.875-5.875A1.47,1.47,0,0,0,139.343,192.439Z" transform="translate(-128.024 -192.008)" fill="#ff7d14"/>
      </g>
    </g>
    <g id="Сгруппировать_306" data-name="Сгруппировать 306" transform="translate(69.877 29.375)">
      <g id="Сгруппировать_305" data-name="Сгруппировать 305">
        <path id="Контур_231" data-name="Контур 231" d="M139.343,320.439a1.473,1.473,0,0,0-2.08,0l-4.835,4.838-1.9-1.9a1.469,1.469,0,1,0-2.077,2.077l2.937,2.937a1.472,1.472,0,0,0,2.077,0l5.875-5.875A1.47,1.47,0,0,0,139.343,320.439Z" transform="translate(-128.024 -320.008)" fill="#ff7d14"/>
      </g>
    </g>
    <g id="Сгруппировать_308" data-name="Сгруппировать 308" transform="translate(84.562 20.562)">
      <g id="Сгруппировать_307" data-name="Сгруппировать 307">
        <path id="Контур_232" data-name="Контур 232" d="M295.344,224h-5.875a1.469,1.469,0,1,0,0,2.937h5.875a1.469,1.469,0,0,0,0-2.937Z" transform="translate(-288 -224)" fill="#ff7d14"/>
      </g>
    </g>
    <g id="Сгруппировать_310" data-name="Сгруппировать 310" transform="translate(84.562 32.312)">
      <g id="Сгруппировать_309" data-name="Сгруппировать 309">
        <path id="Контур_233" data-name="Контур 233" d="M295.344,352h-5.875a1.469,1.469,0,1,0,0,2.937h5.875a1.469,1.469,0,0,0,0-2.937Z" transform="translate(-288 -352)" fill="#ff7d14"/>
      </g>
    </g>
    <g id="Сгруппировать_312" data-name="Сгруппировать 312" transform="translate(64)">
      <g id="Сгруппировать_311" data-name="Сгруппировать 311">
        <path id="Контур_234" data-name="Контур 234" d="M96.312,5.875H90.437V4.406a1.469,1.469,0,0,0-1.469-1.469H85.781a4.409,4.409,0,0,0-8.313,0H74.281a1.469,1.469,0,0,0-1.469,1.469V5.875H66.937A2.942,2.942,0,0,0,64,8.812v35.25A2.942,2.942,0,0,0,66.937,47H96.312a2.942,2.942,0,0,0,2.937-2.937V8.812A2.942,2.942,0,0,0,96.312,5.875Zm-20.562,0h2.937a1.469,1.469,0,0,0,1.469-1.469,1.469,1.469,0,1,1,2.937,0,1.469,1.469,0,0,0,1.469,1.469H87.5V8.812H75.75ZM96.312,44.062H66.937V8.812h5.875v1.469a1.469,1.469,0,0,0,1.469,1.469H88.968a1.469,1.469,0,0,0,1.469-1.469V8.812h5.875Z" transform="translate(-64)" fill="#5775b9"/>
      </g>
    </g>
  </g>
</svg>
