<svg id="vk-social-logotype" xmlns="http://www.w3.org/2000/svg" width="45" height="45" viewBox="0 0 45 45">
  <path id="Контур_184" data-name="Контур 184" d="M22.5,0A22.5,22.5,0,1,0,45,22.5,22.5,22.5,0,0,0,22.5,0ZM33.913,24.933a42.783,42.783,0,0,1,3.1,3.118,8.834,8.834,0,0,1,1.109,1.6c.427.829.041,1.738-.7,1.788h-4.61a3.561,3.561,0,0,1-2.937-1.2c-.638-.649-1.229-1.341-1.843-2.012a4.311,4.311,0,0,0-.83-.738.963.963,0,0,0-1.534.373,4.829,4.829,0,0,0-.486,2.152c-.05,1.087-.378,1.371-1.469,1.422a11.8,11.8,0,0,1-6.6-1.419,14.56,14.56,0,0,1-4.439-4.155A56,56,0,0,1,6.835,15.448c-.369-.821-.1-1.26.807-1.277,1.5-.029,3.009-.025,4.513,0a1.326,1.326,0,0,1,1.253.938,28.008,28.008,0,0,0,3.059,5.668,4.847,4.847,0,0,0,1.156,1.271.7.7,0,0,0,1.193-.351,3.865,3.865,0,0,0,.266-1.19,17.766,17.766,0,0,0-.073-4.166,1.738,1.738,0,0,0-1.481-1.591c-.44-.083-.376-.246-.162-.5a1.658,1.658,0,0,1,1.415-.7h5.208c.821.161,1,.529,1.116,1.356l0,5.788c-.01.32.161,1.268.735,1.478.46.152.764-.217,1.039-.509a18,18,0,0,0,2.936-4.509c.352-.714.655-1.453.95-2.193a1.121,1.121,0,0,1,1.178-.807l5.015.006a2.608,2.608,0,0,1,.444.027c.845.145,1.077.508.815,1.333a12.5,12.5,0,0,1-1.993,3.456c-.838,1.158-1.731,2.276-2.561,3.439C32.906,23.475,32.967,24.01,33.913,24.933Z" fill="#484848"/>
</svg>
