<svg xmlns="http://www.w3.org/2000/svg" width="35" height="20" viewBox="0 0 35 20">
  <g id="vk_1_" data-name="vk (1)" transform="translate(-26 1103.076)">
    <g id="Сгруппировать_66" data-name="Сгруппировать 66" transform="translate(26 -1103.076)">
      <path id="Контур_51" data-name="Контур 51" d="M34.688,127.763a15.623,15.623,0,0,0-3.476-4.027c-2.931-2.726-2.538-2.283.993-7,2.15-2.87,3.01-4.623,2.741-5.372-.256-.714-1.838-.526-1.838-.526l-5.259.031a1.2,1.2,0,0,0-.68.12,1.483,1.483,0,0,0-.464.565,30.532,30.532,0,0,1-1.945,4.11c-2.343,3.985-3.281,4.2-3.664,3.948-.89-.576-.667-2.318-.667-3.554,0-3.863.584-5.473-1.14-5.889a9.015,9.015,0,0,0-2.457-.245,11.345,11.345,0,0,0-4.367.447c-.6.294-1.061.949-.779.986a2.357,2.357,0,0,1,1.553.782,5.081,5.081,0,0,1,.521,2.386s.311,4.546-.724,5.111c-.711.388-1.684-.4-3.774-4.02a33.742,33.742,0,0,1-1.879-3.9,1.556,1.556,0,0,0-.433-.585,2.179,2.179,0,0,0-.809-.326l-5,.031s-.75.022-1.026.348c-.245.291-.02.892-.02.892s3.916,9.173,8.348,13.8a12,12,0,0,0,8.683,3.961h2.091a1.762,1.762,0,0,0,.954-.418,1.527,1.527,0,0,0,.287-.92s-.042-2.811,1.262-3.225c1.284-.408,2.934,2.717,4.682,3.92a3.307,3.307,0,0,0,2.325.71l4.675-.066S35.847,129.689,34.688,127.763Z" transform="translate(0 -109.924)" fill="#fff"/>
    </g>
  </g>
</svg>
