<svg id="XMLID_687_" xmlns="http://www.w3.org/2000/svg" width="47" height="47" viewBox="0 0 47 47">
  <path id="XMLID_746_" d="M13.823,24.035H5.529V12.976h5.25l-1.332,2,2.3,1.534,3.276-4.914L11.748,6.68l-2.3,1.533,1.332,2H2.765V24.035H0V35.094H13.823Zm-2.765,8.294H2.765V26.8h8.294Z" transform="translate(0 -6.064)" fill="#5775b9"/>
  <path id="XMLID_800_" d="M362,192.667H350.938v11.274h5.529V215h-5.25l1.332-2-2.3-1.533-3.276,4.914,3.276,4.914,2.3-1.534-1.332-2h8.015V203.941H362Zm-2.765,8.509H353.7v-5.529h5.529Z" transform="translate(-314.997 -174.912)" fill="#5775b9"/>
  <path id="XMLID_804_" d="M200.529,11.059a5.536,5.536,0,0,0,5.529-5.529h11.059v5.25l-2-1.332-1.533,2.3,4.914,3.276,4.914-3.276-1.533-2.3-2,1.332V2.765H205.315a5.528,5.528,0,1,0-4.785,8.294Zm0-8.294a2.765,2.765,0,1,1-2.765,2.765A2.768,2.768,0,0,1,200.529,2.765Z" transform="translate(-177.03)" fill="#ff7d14"/>
  <path id="XMLID_817_" d="M25.645,356.468H12.976v-5.25l2,1.332,1.534-2.3-4.914-3.276L6.68,350.249l1.533,2.3,2-1.332v8.015H24.048L22.452,362H36.676l-7.112-12.318Zm1.6,2.765,2.323-4.024,2.323,4.024Z" transform="translate(-6.064 -314.997)" fill="#ff7d14"/>
</svg>
