<svg xmlns="http://www.w3.org/2000/svg" width="28" height="20" viewBox="0 0 28 20">
  <path id="youtube" d="M27.424-2.952A3.544,3.544,0,0,0,24.956-5.47C22.765-6.082,14-6.082,14-6.082s-8.764,0-10.955.588A3.617,3.617,0,0,0,.577-2.952,38.451,38.451,0,0,0,0,3.918a38.31,38.31,0,0,0,.577,6.87,3.544,3.544,0,0,0,2.468,2.518c2.214.612,10.955.612,10.955.612s8.764,0,10.955-.588a3.544,3.544,0,0,0,2.468-2.518A38.464,38.464,0,0,0,28,3.942a36.5,36.5,0,0,0-.577-6.894ZM11.21,8.2V-.364L18.5,3.918Zm0,0" transform="translate(-0.001 6.082)" fill="#fff"/>
</svg>
